<svg xmlns="http://www.w3.org/2000/svg" width="1170" height="220" viewBox="0 0 1170 220"><g transform="translate(8 14) scale(.21)"><path fill="#1261F3" d="M 244 290 C 260 123 397 0 552 0 C 680 0 789 78 842 204 C 693 149 484 267 397 448 C 328 590 233 668 142 668 C 46 668 0 612 0 521 C 0 389 119 278 244 290 Z"/><path fill="#7850DA" d="M 110 748 C 270 783 432 684 508 522 C 562 407 657 294 774 294 C 902 294 1000 398 1000 529 C 1000 699 855 834 686 834 L 330 834 C 243 834 166 800 110 748 Z"/></g><path fill="#FFFFFF" d="M298.01 175.92 L298.01 175.92 Q293.37 175.92 287.95 174.89 Q282.53 173.86 277.37 171.88 Q272.21 169.90 268.77 167.24 Q265.33 164.57 264.82 161.13 L264.82 161.13 Q264.47 159.41 264.90 157.43 Q265.33 155.46 266.54 153.31 Q267.74 151.16 269.46 148.75 L269.46 148.75 Q270.84 146.86 272.56 146.34 Q274.28 145.82 276.51 146.51 L276.51 146.51 Q279.26 147.03 282.10 148.32 Q284.94 149.61 287.78 151.07 Q290.62 152.53 293.71 153.65 Q296.81 154.77 300.08 154.77 L300.08 154.77 Q304.89 154.77 307.56 153.31 Q310.22 151.84 310.22 149.26 L310.22 149.26 Q310.22 147.37 309.11 146.17 Q307.99 144.96 306.01 144.02 Q304.03 143.07 301.45 142.38 Q298.87 141.70 295.86 140.92 Q292.85 140.15 289.76 139.29 L289.76 139.29 Q285.46 138.08 281.50 136.19 Q277.54 134.30 274.28 131.29 Q271.01 128.28 269.12 123.89 Q267.22 119.51 267.22 113.14 L267.22 113.14 Q267.22 104.72 271.18 99.04 Q275.14 93.36 282.70 90.35 Q290.27 87.34 301.11 87.34 L301.11 87.34 Q304.20 87.34 307.30 87.69 Q310.40 88.03 313.41 88.89 Q316.42 89.75 319.34 90.96 Q322.26 92.16 325.19 93.88 L325.19 93.88 Q330.35 96.29 330.52 100.42 Q330.69 104.54 327.60 108.84 L327.60 108.84 Q325.70 111.77 323.64 113.06 Q321.58 114.35 319.34 113.83 L319.34 113.83 Q316.59 113.14 313.41 111.60 Q310.22 110.05 306.70 108.67 Q303.17 107.30 299.73 107.30 L299.73 107.30 Q296.81 107.30 294.74 108.07 Q292.68 108.84 291.65 110.13 Q290.62 111.42 290.62 113.14 L290.62 113.14 Q290.62 115.38 291.91 116.67 Q293.20 117.96 295.43 118.82 Q297.67 119.68 300.59 120.37 Q303.52 121.06 306.96 121.74 L306.96 121.74 Q311.60 122.60 316.50 124.07 Q321.40 125.53 325.45 128.28 Q329.49 131.03 331.98 135.68 Q334.48 140.32 334.48 147.89 L334.48 147.89 Q334.48 161.48 325.02 168.70 Q315.56 175.92 298.01 175.92 M382.81 174.38 L382.81 174.38 Q374.90 174.38 367.93 171.28 Q360.96 168.18 355.80 162.59 Q350.64 157.00 347.81 149.35 Q344.97 141.70 344.97 132.58 L344.97 132.58 L344.97 101.45 Q344.97 98.01 345.66 95.08 Q346.34 92.16 349.01 90.27 Q351.68 88.38 358.04 88.38 L358.04 88.38 Q364.40 88.38 367.07 90.27 Q369.74 92.16 370.34 95.17 Q370.94 98.18 370.94 101.62 L370.94 101.62 L370.94 132.58 Q370.94 137.57 372.75 141.27 Q374.55 144.96 378.08 146.86 Q381.60 148.75 386.42 148.75 L386.42 148.75 Q391.41 148.75 394.93 146.77 Q398.46 144.79 400.44 141.18 Q402.42 137.57 402.42 132.58 L402.42 132.58 L402.42 101.28 Q402.42 97.84 403.10 94.91 Q403.79 91.99 406.46 90.18 Q409.12 88.38 415.49 88.38 L415.49 88.38 Q421.85 88.38 424.52 90.27 Q427.18 92.16 427.79 95.17 Q428.39 98.18 428.39 101.45 L428.39 101.45 L428.39 161.99 Q428.39 165.26 427.79 168.10 Q427.18 170.94 424.43 172.66 Q421.68 174.38 415.49 174.38 L415.49 174.38 Q410.84 174.38 408.26 173.34 Q405.68 172.31 404.48 170.76 Q403.28 169.22 403.02 167.50 Q402.76 165.78 402.76 164.40 L402.76 164.40 L405.00 162.51 Q404.48 163.20 402.76 165.09 Q401.04 166.98 398.20 169.13 Q395.36 171.28 391.58 172.83 Q387.80 174.38 382.81 174.38 M487.21 173.00 L487.21 173.00 Q478.78 173.00 472.33 169.65 Q465.88 166.29 461.67 160.53 Q457.46 154.77 455.31 147.20 Q453.16 139.63 453.33 130.86 L453.33 130.86 Q453.33 122.43 455.56 114.78 Q457.80 107.12 462.01 101.19 Q466.23 95.26 472.51 91.90 Q478.78 88.55 487.21 88.55 L487.21 88.55 Q494.78 88.55 501.92 91.99 Q509.06 95.43 514.56 101.36 Q520.06 107.30 523.25 115.04 Q526.43 122.78 526.43 131.38 L526.43 131.38 Q526.43 139.98 523.25 147.63 Q520.06 155.28 514.56 160.96 Q509.06 166.64 502.00 169.82 Q494.95 173.00 487.21 173.00 M454.02 210.15 L454.02 210.15 Q447.82 210.15 445.16 208.35 Q442.49 206.54 441.89 203.70 Q441.29 200.86 441.29 197.60 L441.29 197.60 L441.29 101.45 Q441.29 98.01 441.80 95.17 Q442.32 92.33 444.99 90.44 Q447.65 88.55 453.84 88.55 L453.84 88.55 Q459.18 88.55 462.36 90.10 Q465.54 91.64 466.92 94.91 L466.92 94.91 L466.92 197.42 Q467.09 200.69 466.40 203.62 Q465.71 206.54 463.05 208.35 Q460.38 210.15 454.02 210.15 M483.60 148.75 L483.60 148.75 Q488.42 148.75 492.20 146.43 Q495.98 144.10 498.31 140.15 Q500.63 136.19 500.63 131.38 L500.63 131.38 Q500.63 126.39 498.39 122.52 Q496.16 118.65 492.37 116.41 Q488.59 114.18 483.77 114.18 L483.77 114.18 Q479.13 114.18 475.26 116.50 Q471.39 118.82 469.24 122.69 Q467.09 126.56 467.09 131.38 L467.09 131.38 Q467.09 136.19 469.32 140.15 Q471.56 144.10 475.34 146.43 Q479.13 148.75 483.60 148.75 M607.27 174.38 L607.27 174.38 Q600.90 174.38 597.89 172.14 Q594.88 169.90 594.88 166.64 L594.88 166.64 L596.60 163.71 Q595.57 165.43 592.65 167.93 Q589.72 170.42 585.08 172.40 Q580.44 174.38 573.56 174.38 L573.56 174.38 Q565.64 174.38 558.51 170.94 Q551.37 167.50 545.86 161.39 Q540.36 155.28 537.18 147.54 Q534.00 139.80 534.00 131.20 L534.00 131.20 Q534.00 122.78 537.18 115.12 Q540.36 107.47 545.95 101.53 Q551.54 95.60 558.59 92.16 Q565.64 88.72 573.56 88.72 L573.56 88.72 Q579.92 88.72 584.39 90.53 Q588.86 92.33 591.87 94.74 Q594.88 97.15 596.43 99.38 L596.43 99.38 L595.06 96.98 Q594.88 92.85 597.89 90.70 Q600.90 88.55 607.44 88.55 L607.44 88.55 Q613.63 88.55 616.30 90.44 Q618.96 92.33 619.57 95.43 Q620.17 98.52 620.17 101.96 L620.17 101.96 L620.17 161.30 Q620.17 164.57 619.57 167.67 Q618.96 170.76 616.30 172.57 Q613.63 174.38 607.27 174.38 M577.34 148.75 L577.34 148.75 Q581.81 148.75 585.51 146.43 Q589.21 144.10 591.36 140.15 Q593.51 136.19 593.51 131.38 L593.51 131.38 Q593.51 126.39 591.27 122.52 Q589.04 118.65 585.25 116.33 Q581.47 114.00 577.00 114.00 L577.00 114.00 Q572.01 114.00 568.14 116.41 Q564.27 118.82 561.95 122.78 Q559.62 126.73 559.62 131.72 L559.62 131.72 Q559.62 136.36 561.95 140.23 Q564.27 144.10 568.31 146.43 Q572.35 148.75 577.34 148.75 M646.83 174.55 L646.83 174.55 Q640.46 174.55 637.80 172.74 Q635.13 170.94 634.53 167.84 Q633.93 164.74 633.93 161.48 L633.93 161.48 L633.93 101.45 Q633.93 98.01 634.62 95.08 Q635.30 92.16 637.97 90.35 Q640.64 88.55 647.00 88.55 L647.00 88.55 Q653.02 88.55 655.69 90.18 Q658.35 91.82 659.04 93.97 Q659.73 96.12 659.73 97.66 L659.73 97.66 L657.66 98.70 Q658.01 98.01 659.47 96.20 Q660.93 94.40 663.51 92.42 Q666.09 90.44 669.79 89.06 Q673.49 87.69 678.30 87.69 L678.30 87.69 Q680.20 87.69 682.52 87.95 Q684.84 88.20 687.33 88.98 Q689.83 89.75 691.89 91.04 Q693.96 92.33 695.25 94.22 Q696.54 96.12 696.54 98.87 L696.54 98.87 Q696.54 105.92 693.27 110.82 Q690.00 115.72 685.01 115.72 L685.01 115.72 Q682.09 115.72 680.88 115.21 Q679.68 114.69 678.91 114.18 Q678.13 113.66 677.10 113.23 Q676.07 112.80 673.32 112.80 L673.32 112.80 Q670.74 112.80 668.41 113.49 Q666.09 114.18 664.11 115.64 Q662.14 117.10 661.02 119.25 Q659.90 121.40 659.90 123.98 L659.90 123.98 L659.90 161.82 Q659.90 165.09 659.30 168.10 Q658.70 171.11 655.94 172.83 Q653.19 174.55 646.83 174.55 M749.17 175.24 L749.17 175.24 Q741.60 175.24 733.77 172.40 Q725.95 169.56 719.33 163.97 Q712.70 158.38 708.75 150.21 Q704.79 142.04 704.79 131.38 L704.79 131.38 Q704.79 120.71 708.75 112.63 Q712.70 104.54 719.24 99.04 Q725.78 93.54 733.60 90.70 Q741.43 87.86 748.82 87.86 L748.82 87.86 Q755.19 87.86 760.26 89.32 Q765.34 90.78 768.86 92.85 Q772.39 94.91 773.94 96.46 L773.94 96.46 Q776.86 98.70 779.10 100.93 Q781.33 103.17 781.16 106.78 L781.16 106.78 Q780.99 108.67 779.96 110.65 Q778.92 112.63 777.38 114.69 L777.38 114.69 Q772.22 121.92 767.06 121.23 L767.06 121.23 Q764.48 120.71 762.33 119.51 Q760.18 118.30 758.20 117.01 Q756.22 115.72 753.98 114.86 Q751.75 114.00 748.82 114.00 L748.82 114.00 Q743.84 114.00 739.88 116.24 Q735.92 118.48 733.60 122.43 Q731.28 126.39 731.28 131.55 L731.28 131.55 Q731.28 136.54 733.60 140.49 Q735.92 144.45 739.79 146.77 Q743.66 149.09 748.48 149.09 L748.48 149.09 Q751.40 149.09 753.55 148.40 Q755.70 147.72 757.25 146.77 Q758.80 145.82 759.66 145.31 L759.66 145.31 Q761.72 143.93 763.62 142.81 Q765.51 141.70 767.57 141.70 L767.57 141.70 Q769.98 141.70 772.56 143.50 Q775.14 145.31 778.24 149.26 L778.24 149.26 Q780.99 152.88 781.42 155.97 Q781.85 159.07 779.96 161.82 Q778.06 164.57 774.11 167.15 L774.11 167.15 Q772.73 168.36 769.21 170.25 Q765.68 172.14 760.61 173.69 Q755.53 175.24 749.17 175.24 M826.57 174.55 L826.57 174.55 Q819.52 174.55 814.10 173.77 Q808.68 173.00 804.81 170.94 Q800.94 168.87 798.53 165.26 Q796.12 161.65 795.01 155.89 Q793.89 150.12 793.89 141.70 L793.89 141.70 L793.89 62.23 Q793.89 58.79 794.49 55.87 Q795.09 52.94 797.84 51.05 Q800.60 49.16 806.79 49.16 L806.79 49.16 Q812.98 49.16 815.65 51.05 Q818.31 52.94 819.00 55.87 Q819.69 58.79 819.69 62.23 L819.69 62.23 L819.69 140.49 Q819.69 143.24 819.95 145.05 Q820.20 146.86 820.98 147.89 Q821.75 148.92 823.13 149.26 Q824.50 149.61 826.74 149.61 L826.74 149.61 Q828.80 149.61 830.95 150.12 Q833.10 150.64 834.65 153.22 Q836.20 155.80 836.20 161.82 L836.20 161.82 Q836.20 168.01 834.65 170.76 Q833.10 173.52 830.95 174.03 Q828.80 174.55 826.57 174.55 M886.60 175.92 L886.60 175.92 Q878.51 175.92 870.51 172.74 Q862.52 169.56 855.98 163.71 Q849.44 157.86 845.66 149.69 Q841.88 141.52 841.88 131.55 L841.88 131.55 Q841.88 122.26 845.32 114.26 Q848.76 106.26 854.95 100.07 Q861.14 93.88 869.14 90.35 Q877.14 86.83 886.25 86.83 L886.25 86.83 Q898.64 86.83 908.70 92.76 Q918.76 98.70 924.78 108.84 Q930.80 118.99 930.80 131.38 L930.80 131.38 Q930.80 141.87 926.93 150.04 Q923.06 158.21 916.61 164.06 Q910.16 169.90 902.33 172.91 Q894.51 175.92 886.60 175.92 M886.25 149.95 L886.25 149.95 Q890.38 149.95 894.68 147.89 Q898.98 145.82 901.90 141.70 Q904.83 137.57 904.83 131.20 L904.83 131.20 Q904.83 125.70 902.42 121.57 Q900.01 117.44 895.80 115.12 Q891.58 112.80 886.08 112.80 L886.08 112.80 Q880.92 112.80 876.88 115.21 Q872.84 117.62 870.34 121.83 Q867.85 126.04 867.85 131.38 L867.85 131.38 Q867.85 137.57 870.69 141.78 Q873.52 146.00 877.82 147.97 Q882.12 149.95 886.25 149.95 M978.44 174.38 L978.44 174.38 Q970.53 174.38 963.57 171.28 Q956.60 168.18 951.44 162.59 Q946.28 157.00 943.44 149.35 Q940.60 141.70 940.60 132.58 L940.60 132.58 L940.60 101.45 Q940.60 98.01 941.29 95.08 Q941.98 92.16 944.65 90.27 Q947.31 88.38 953.68 88.38 L953.68 88.38 Q960.04 88.38 962.71 90.27 Q965.37 92.16 965.97 95.17 Q966.58 98.18 966.58 101.62 L966.58 101.62 L966.58 132.58 Q966.58 137.57 968.38 141.27 Q970.19 144.96 973.71 146.86 Q977.24 148.75 982.06 148.75 L982.06 148.75 Q987.04 148.75 990.57 146.77 Q994.10 144.79 996.07 141.18 Q998.05 137.57 998.05 132.58 L998.05 132.58 L998.05 101.28 Q998.05 97.84 998.74 94.91 Q999.43 91.99 1002.09 90.18 Q1004.76 88.38 1011.12 88.38 L1011.12 88.38 Q1017.49 88.38 1020.15 90.27 Q1022.82 92.16 1023.42 95.17 Q1024.02 98.18 1024.02 101.45 L1024.02 101.45 L1024.02 161.99 Q1024.02 165.26 1023.42 168.10 Q1022.82 170.94 1020.07 172.66 Q1017.32 174.38 1011.12 174.38 L1011.12 174.38 Q1006.48 174.38 1003.90 173.34 Q1001.32 172.31 1000.12 170.76 Q998.91 169.22 998.65 167.50 Q998.40 165.78 998.40 164.40 L998.40 164.40 L1000.63 162.51 Q1000.12 163.20 998.40 165.09 Q996.68 166.98 993.84 169.13 Q991.00 171.28 987.22 172.83 Q983.43 174.38 978.44 174.38 M1074.59 174.38 L1074.59 174.38 Q1066.85 174.38 1059.71 171.02 Q1052.58 167.67 1047.07 161.65 Q1041.57 155.63 1038.39 147.80 Q1035.20 139.98 1035.20 131.20 L1035.20 131.20 Q1035.20 122.78 1038.39 115.12 Q1041.57 107.47 1047.16 101.53 Q1052.75 95.60 1059.80 92.16 Q1066.85 88.72 1074.59 88.72 L1074.59 88.72 Q1082.85 88.72 1089.13 92.07 Q1095.40 95.43 1099.70 101.28 Q1104.00 107.12 1106.15 114.86 Q1108.30 122.60 1108.48 131.03 L1108.48 131.03 Q1108.65 139.80 1106.50 147.54 Q1104.35 155.28 1100.05 161.30 Q1095.75 167.32 1089.47 170.85 Q1083.19 174.38 1074.59 174.38 M1078.03 148.92 L1078.03 148.92 Q1082.68 148.92 1086.37 146.60 Q1090.07 144.28 1092.39 140.32 Q1094.72 136.36 1094.72 131.55 L1094.72 131.55 Q1094.72 126.56 1092.48 122.69 Q1090.24 118.82 1086.46 116.58 Q1082.68 114.35 1077.86 114.35 L1077.86 114.35 Q1073.22 114.35 1069.35 116.58 Q1065.48 118.82 1063.33 122.69 Q1061.18 126.56 1061.18 131.55 L1061.18 131.55 Q1061.18 136.36 1063.41 140.32 Q1065.65 144.28 1069.60 146.60 Q1073.56 148.92 1078.03 148.92 M1108.13 174.55 L1108.13 174.55 Q1102.28 174.55 1099.36 172.66 Q1096.44 170.76 1095.58 166.81 L1095.58 166.81 L1095.58 62.58 Q1095.58 59.31 1096.01 56.30 Q1096.44 53.29 1099.02 51.40 Q1101.60 49.50 1107.96 49.50 L1107.96 49.50 Q1114.32 49.50 1116.99 51.31 Q1119.66 53.12 1120.26 56.04 Q1120.86 58.96 1120.86 62.40 L1120.86 62.40 L1120.86 161.48 Q1120.86 164.74 1120.26 167.75 Q1119.66 170.76 1116.99 172.66 Q1114.32 174.55 1108.13 174.55"/></svg>